<?xml version="1.0" ?><svg viewBox="0 0 400 400" xmlns="http://www.w3.org/2000/svg"><g data-name="Layer 11" id="Layer_11"><path d="M298.5,346.26h-197c-19.3,0-35-12.56-35-28s15.7-28,35-28h197c19.3,0,35,12.56,35,28S317.8,346.26,298.5,346.26Zm-197-46c-13.55,0-25,8.24-25,18s11.45,18,25,18h197c13.55,0,25-8.25,25-18s-11.45-18-25-18Z"/><path d="M204.39,271.26H192.61a35,35,0,0,1-35-35v-64.4a5.8,5.8,0,0,0-5.79-5.79H135.5c-13.5,0-18.44-6.09-20.18-9.72s-3.41-11.28,5-21.82l55.48-69.26c6-7.43,14-11.53,22.66-11.53s16.7,4.1,22.66,11.53l55.48,69.26c8.45,10.54,6.79,18.2,5,21.82s-6.68,9.72-20.18,9.72H245.18a5.8,5.8,0,0,0-5.79,5.79v64.4A35,35,0,0,1,204.39,271.26ZM198.5,63.74c-5.56,0-10.83,2.77-14.86,7.79l-55.48,69.25c-3.61,4.51-5,8.71-3.83,11.24s5.39,4,11.17,4h16.32a15.81,15.81,0,0,1,15.79,15.79v64.4a25,25,0,0,0,25,25h11.78a25,25,0,0,0,25-25v-64.4a15.81,15.81,0,0,1,15.79-15.79H261.5c5.78,0,10-1.51,11.17-4s-.22-6.73-3.83-11.24L213.36,71.53C209.33,66.51,204.06,63.74,198.5,63.74Z"/></g></svg>